# File created by Blade
# Date/Time:  Wed Jan 21 18:02:19 2015
# Frame Rate: 120.000 fps
#------------------------------------------------------
:FULLY-SPECIFIED
:DEGREES
728
root 19.118407 38.402228 -18.354969 -103.299554 16.245348 -139.806927
Spine -37.403683 27.916468 4.721062
Head -37.160712 10.655969 12.749961
LeftShoulder -5.371207 -21.410666 5.626864
LeftArm -21.852840 12.986628 -78.615375
LeftForeArm -10.003612 -0.000000 6.478738
LeftHand 1.454754 0.000000 5.521911
LeftHandThumb1 -26.253704 0.000000 33.147579
RightShoulder -5.195341 -10.278043 14.623967
RightArm 29.362357 -32.884563 43.142380
RightForeArm -22.920227 -0.000000 36.516741
RightHand 1.336819 -0.000000 2.117326
RightHandThumb1 -24.326973 -0.000000 -32.862282
LeftUpLeg -71.097900 32.963792 2.765909
LeftLeg 4.095163 -0.000000 -0.000000
LeftFoot -15.736529 28.550664 -12.855054
LeftToeBase 19.276856 -0.000000 -0.000000
RightUpLeg 6.880097 -1.979350 -17.209144
RightLeg 26.886990 -0.000000 -0.000000
RightFoot -18.674630 -35.853593 13.040533
RightToeBase 4.437513 -0.000000 -0.000000
729
root 19.094265 38.473555 -18.227802 -102.116588 15.558244 -138.557492
Spine -37.399740 28.420090 5.659184
Head -37.524332 11.434726 13.069999
LeftShoulder -5.680720 -21.260131 5.832372
LeftArm -22.348179 12.463361 -78.710988
LeftForeArm -10.301212 -0.000000 6.372177
LeftHand 1.489972 -0.000000 5.409976
LeftHandThumb1 -26.253704 0.000000 33.147579
RightShoulder -5.201404 -10.311832 14.879926
RightArm 29.238393 -32.741826 42.449665
RightForeArm -23.113205 -0.000000 36.489181
RightHand 1.332033 -0.000000 1.873294
RightHandThumb1 -24.326973 -0.000000 -32.862282
LeftUpLeg -72.405441 34.147825 2.987028
LeftLeg 4.057092 -0.000000 -0.000000
LeftFoot -15.417844 28.548943 -12.739984
LeftToeBase 19.357779 -0.000000 -0.000000
RightUpLeg 6.880707 -2.266225 -18.004915
RightLeg 26.921944 -0.000000 -0.000000
RightFoot -18.626985 -36.234991 12.785437
RightToeBase 4.154087 -0.000000 -0.000000
730
root 19.067677 38.548555 -18.110346 -100.706306 14.943493 -137.352717
Spine -37.832056 28.901166 6.196020
Head -37.778249 12.238935 13.550718
LeftShoulder -5.924266 -20.990037 6.125244
LeftArm -22.801864 12.119105 -78.860042
LeftForeArm -10.729911 -0.000000 6.206862
LeftHand 1.474249 -0.000000 5.213229
LeftHandThumb1 -26.253704 0.000000 33.147579
RightShoulder -5.332678 -10.495209 15.266195
RightArm 29.181613 -32.628969 41.703796
RightForeArm -23.430494 -0.000000 36.474522
RightHand 1.289194 -0.000000 1.762172
RightHandThumb1 -24.326973 -0.000000 -32.862282
LeftUpLeg -74.001021 35.325588 2.883165
LeftLeg 3.962805 -0.000000 -0.000000
LeftFoot -15.131284 28.550738 -12.833989
LeftToeBase 19.324435 -0.000000 -0.000000
RightUpLeg 6.582847 -2.305431 -18.685001
RightLeg 26.872873 -0.000000 -0.000000
RightFoot -18.714731 -36.817671 12.640222
RightToeBase 4.072851 -0.000000 -0.000000
731
root 19.047615 38.610358 -17.995615 -99.509035 14.310899 -136.278096
Spine -38.053096 29.259970 6.787397
Head -38.053928 12.991260 14.012480
LeftShoulder -6.148661 -20.840155 6.354420
LeftArm -23.310581 11.724750 -78.953845
LeftForeArm -11.185862 0.000000 5.974371
LeftHand 1.461123 -0.000000 5.042696
LeftHandThumb1 -26.253704 0.000000 33.147579
RightShoulder -5.419369 -10.575615 15.594640
RightArm 28.876472 -32.411320 41.234222
RightForeArm -23.795153 -0.000000 36.481579
RightHand 1.094630 -0.000000 1.700873
RightHandThumb1 -24.326973 -0.000000 -32.862282
LeftUpLeg -75.420410 36.374381 2.790122
LeftLeg 3.803673 -0.000000 -0.000000
LeftFoot -14.913517 28.625630 -12.958777
LeftToeBase 19.379918 -0.000000 -0.000000
RightUpLeg 6.378865 -2.727361 -19.451040
RightLeg 26.882469 -0.000000 -0.000000
RightFoot -18.762229 -36.936153 12.395545
RightToeBase 4.213683 -0.000000 -0.000000
732
root 19.030842 38.674355 -17.883061 -98.215651 13.749462 -135.139531
Spine -38.469616 29.735551 7.052478
Head -38.319002 13.675415 14.595228
LeftShoulder -6.263457 -20.576835 6.632021
LeftArm -23.658816 11.654592 -79.165465
LeftForeArm -11.775530 -0.000000 5.628790
LeftHand 1.483852 0.000000 4.759959
LeftHandThumb1 -26.253704 0.000000 33.147579
RightShoulder -5.679306 -10.809501 16.121981
RightArm 28.790981 -32.199956 40.492822
RightForeArm -24.260171 -0.000000 36.503346
RightHand 1.098781 -0.000000 2.055153
RightHandThumb1 -24.326973 -0.000000 -32.862282
LeftUpLeg -76.953270 37.538113 2.447843
LeftLeg 3.545571 -0.000000 -0.000000
LeftFoot -14.536848 28.672528 -12.874023
LeftToeBase 19.380668 -0.000000 -0.000000
RightUpLeg 5.926075 -2.924877 -20.127364
RightLeg 26.967449 -0.000000 -0.000000
RightFoot -18.927818 -37.005358 12.265868
RightToeBase 4.378494 -0.000000 -0.000000
733
root 19.013747 38.732040 -17.775348 -96.977199 13.239877 -134.172659
Spine -38.936923 30.034143 7.168536
Head -38.583869 14.297622 15.292638
LeftShoulder -6.380278 -20.343606 6.886158
LeftArm -24.022044 11.696177 -79.344813
LeftForeArm -12.468995 -0.000000 5.270613
LeftHand 1.604221 -0.000000 4.287069
LeftHandThumb1 -26.253704 0.000000 33.147579
RightShoulder -5.865077 -10.970790 16.555016
RightArm 28.443282 -31.942227 40.135223
RightForeArm -24.953176 -0.000000 36.487732
RightHand 0.798968 0.000000 1.907084
RightHandThumb1 -24.326973 -0.000000 -32.862282
LeftUpLeg -78.451904 38.507242 2.000858
LeftLeg 3.215294 -0.000000 -0.000000
LeftFoot -14.157162 28.809417 -12.872805
LeftToeBase 19.339752 -0.000000 -0.000000
RightUpLeg 5.470714 -3.047508 -20.741089
RightLeg 27.028505 -0.000000 -0.000000
RightFoot -19.127235 -37.158384 12.173087
RightToeBase 4.685408 -0.000000 -0.000000
